<?xml version="1.0" encoding="UTF-8"?>
<svg id="Layer_2" data-name="Layer 2" xmlns="http://www.w3.org/2000/svg" viewBox="0 0 522.01 339.95">
  <defs>
    <style>
      .cls-1 {
        fill: #292929;
      }
    </style>
  </defs>
  <g id="Layer_1-2" data-name="Layer 1">
    <path class="cls-1" d="M226.83,325.99c-5.41,4.69-13.6,8.06-20.82,8.06h-16.49v-45.73h4.57c7.1,0,15.4,3.49,20.46,8.54l3.49,3.49h1.44v-28.4h-1.44l-3.49,3.37c-5.05,5.17-13.36,8.54-20.46,8.54h-4.57v-45.6h13.48c7.22,0,15.4,3.13,20.82,8.06l7.7,6.86h1.44l-3.01-19.37h-67.04c1.76-2.87,3.67-5.87,5.75-9.01,2.62-3.96,5.59-7.61,8.92-10.93s6.97-6.08,10.93-8.28c3.96-2.19,8.35-3.29,13.16-3.29l19.32,1.91c1.56,0,3.11-.14,4.67-.42,1.56-.28,3.11-.78,4.67-1.49,8.63-4.25,17.26-8.52,25.9-12.84,8.63-4.32,17.19-8.46,25.69-12.42,.98-.47,1.97-.92,2.97-1.35,1.74-.57,3.58-1.18,5.52-1.83,3.82-1.27,7.43-2.47,10.83-3.61,3.4-1.13,5.52-1.84,6.37-2.12,9.76-2.55,18.89-6.51,27.38-11.89,8.41-5.32,15.07-12.67,20.01-22.02l.15-.06c1.84,2.83,4.25,5.45,7.22,7.85,2.97,2.41,6.26,4.53,9.87,6.37,3.61,1.84,7.43,3.26,11.46,4.25,4.03,.99,8.1,1.49,12.21,1.49,12.17,0,23.28-2.72,33.33-8.17,10.05-5.45,19.28-12.49,27.7-21.12,8.42-8.63,16.17-18.33,23.25-29.08,7.07-10.75,13.72-21.51,19.95-32.27,1.7-2.83,3.36-5.66,4.99-8.49,1.62-2.83,3.22-5.73,4.78-8.7,.14-.28,.28-.81,.42-1.59,.14-.78,.21-1.52,.21-2.23,0-.99-.18-1.87-.53-2.65-.36-.78-.89-1.17-1.59-1.17-1.42,0-2.65,.53-3.71,1.59s-1.95,2.16-2.65,3.29c-1.7,2.69-4.03,6.05-7,10.08-2.97,4.03-6.26,7.96-9.87,11.78-3.61,3.82-7.43,7.11-11.46,9.87-4.03,2.76-7.96,4.14-11.78,4.14-3.4,0-7.04-.71-10.93-2.12-3.89-1.41-7.64-3.29-11.25-5.62-3.61-2.34-6.76-5.06-9.45-8.17-2.69-3.11-4.46-6.37-5.31-9.77,.99-2.12,2.3-4.46,3.93-7,1.62-2.55,3.5-4.92,5.62-7.11,2.12-2.19,4.38-4.07,6.79-5.63,2.41-1.56,4.88-2.33,7.43-2.33l24.62,6.16c4.67,0,8.24-1.27,10.72-3.82,2.47-2.55,3.71-6.16,3.71-10.83,0-2.97-.71-5.63-2.12-7.96-1.42-2.33-3.22-4.32-5.41-5.94-2.2-1.63-4.64-2.87-7.32-3.71-2.69-.85-5.38-1.27-8.07-1.27-3.54,0-6.9,.6-10.08,1.8-3.18,1.2-6.23,2.76-9.13,4.67-2.9,1.91-5.56,4.14-7.96,6.69-2.41,2.55-4.53,5.17-6.37,7.85-3.68,5.38-7.01,10.69-9.98,15.92-2.97,5.24-6.09,10.83-9.34,16.77-2.41,4.39-4.96,8.92-7.64,13.59-2.69,4.67-5.03,9.48-7,14.44-.14,.42-.21,1.42-.21,2.97,0,3.4,.67,6.58,2.02,9.55,1.34,2.97,3.15,5.52,5.41,7.64-5.09,0-9.8-.6-14.12-1.8-4.32-1.2-8.1-3.29-11.36-6.26-3.26-2.97-5.84-6.97-7.75-11.99-1.91-5.02-3.01-11.28-3.29-18.79l2.12-26.96c0-2.55-.21-3.82-.64-3.82-1.56,0-3.26,1.27-5.09,3.82-1.84,2.55-3.75,5.91-5.73,10.08-1.98,4.18-4,8.88-6.05,14.12-2.05,5.24-4,10.54-5.84,15.92-.28,.71-.6,1.73-.96,3.08-.35,1.35-.67,3.4-.96,6.16-.28,2.76-.53,6.34-.74,10.72-.21,4.39-.32,9.98-.32,16.77,0,2.74-.16,5.45-.47,8.12-2.17,2.13-4.48,4.1-6.96,5.89-3.54,2.55-7.25,4.6-11.14,6.16-3.89,1.56-7.82,2.33-11.78,2.33s-8.06-.97-12-2.9c.07-.34,.14-.67,.22-1.02,.35-1.62,.67-3.32,.96-5.09,.28-1.77,.42-3.29,.42-4.56,0-2.4-.57-3.61-1.7-3.61-1.42,0-2.58,.78-3.5,2.33-.92,1.56-1.77,3.29-2.55,5.2-.78,1.91-1.52,3.79-2.23,5.63-.71,1.84-1.49,3.04-2.33,3.61-3.26,2.83-7.11,4.96-11.57,6.37-4.46,1.42-8.74,2.12-12.84,2.12h-.21c-.71,0-1.8-.07-3.29-.21-1.49-.14-2.23-.56-2.23-1.27,0-.85,.25-2.33,.74-4.46,.49-2.12,.74-4.17,.74-6.16,0-2.69-.78-4.03-2.33-4.03-1.27,0-2.55,.78-3.82,2.33-1.27,1.56-2.51,3.36-3.72,5.41-1.2,2.05-2.27,4.11-3.18,6.16-.92,2.05-1.59,3.58-2.02,4.56-1.7,3.26-3.86,6.3-6.47,9.13-2.62,2.83-5.91,4.25-9.87,4.25l-15.92-1.49c-6.94,0-13.48,1.77-19.64,5.31-6.16,3.54-11.92,8.21-17.3,14.01-5.38,5.8-10.26,12.35-14.65,19.64-3,4.98-5.76,10.04-8.33,15.18-.1-1.54-.22-3.12-.38-4.78-.42-4.46-1.35-8.67-2.76-12.63-1.42-3.96-3.58-7.32-6.47-10.08-2.9-2.76-6.76-4.14-11.57-4.14-3.26,0-6.51,.64-9.77,1.91-3.26,1.27-6.16,3.04-8.7,5.31l-17.83,15.71c-4.11,3.68-9.02,6.23-14.75,7.64-5.73,1.42-11.29,2.12-16.66,2.12-5.09,0-9.41-.64-12.95-1.91-3.54-1.27-6.55-3.15-9.02-5.63-2.48-2.47-4.46-5.55-5.94-9.23-1.06-2.62-1.99-5.55-2.8-8.75-.82-4.58-1.42-9.3-1.77-14.17-.42-5.94-.64-11.32-.64-16.13,1.27-22.5,2.37-41.61,3.29-57.32,.92-15.71,1.66-28.8,2.23-39.27,.56-10.47,.99-18.71,1.27-24.73,.28-6.01,.42-10.58,.42-13.69s-.14-5.23-.42-5.94c-.29-.71-.71-1.06-1.27-1.06-1.13,0-1.98,.57-2.55,1.7-.57,1.13-1.13,2.41-1.7,3.82l-14.01,35.24c-.57,1.42-.96,3.08-1.17,4.99s-.39,3.79-.53,5.63c-1.13,18.12-2.09,33.79-2.87,47.02-.78,13.23-1.42,24.59-1.91,34.07-.5,9.48-.92,17.27-1.27,23.35-.35,6.09-.6,10.93-.74,14.54-.14,3.61-.21,6.3-.21,8.07v3.71c0,2.83,.14,5.7,.42,8.6,.14,1.42,.29,2.87,.47,4.34,.2,5.97,1.18,11.78,2.93,17.42,1.98,6.37,4.92,11.99,8.81,16.88,3.89,4.88,8.67,8.78,14.33,11.68,.31,.16,.64,.3,.95,.45l-22.41,55.43c-2.65,6.14-7.82,13.12-12.88,17.45l-4.09,3.37v1.44H22.74v-1.44l-.24-.48c-3.01-6.02-3.37-14.2-.84-20.34l.96-2.41H58.6l1.2,3.13c2.29,5.66,2.05,13.36-.84,18.65l-.6,1.44v1.44h46.81v-1.44l-4.81-3.97c-4.57-3.85-9.39-10.47-11.67-16.12l-20.99-53.32c2.26-.52,4.43-1.22,6.5-2.12,4.88-2.12,9.34-4.88,13.37-8.28s7.78-7.29,11.25-11.68c3.47-4.39,6.76-8.84,9.87-13.37,1.7-2.4,3.64-4.81,5.84-7.22,2.19-2.4,4.78-3.61,7.75-3.61s5.84,.85,8.17,2.55,4.21,3.82,5.63,6.37c1.29,2.33,2.27,4.84,2.98,7.52h-33.16v1.44l1.81,2.41c4.33,5.66,7.22,14.32,7.22,21.54v53.91c0,7.1-2.89,15.64-7.22,21.54l-1.81,2.41v1.44h44.88v-1.44l-1.8-2.41c-4.33-5.9-7.22-14.44-7.22-21.54v-34.13l16.78-36.37c2.58,5.12,4.16,11.25,4.16,16.6v53.91c0,7.1-2.89,15.64-7.22,21.54l-1.81,2.41v1.44h79.3l3.01-19.49h-1.56l-7.58,6.98Zm-202.4-16.61l16.36-40.55,16,40.55H24.43Z"/>
    <path class="cls-1" d="M263.29,249.34c0-6.98,6.74-12.51,17.09-12.51,9.51,0,15.4,4.93,8.66,19.13-6.26,13.24-1.08,17.09,5.05,17.09,2.65,0,5.29-.6,7.46-1.56,7.94-3.49,12.03-11.91,10.47-20.22-1.8-10.71-12.39-19.01-32.25-19.01-25.87,0-37.18,14.08-37.18,28.04,0,29.48,49.82,36.34,49.82,59.56,0,8.3-6.5,15.64-16.24,15.64-10.35,0-18.29-8.18-10.95-24.19,6.62-13.96,0-19.61-7.82-19.61-3.49,0-7.34,1.08-10.23,3.13-4.21,2.89-9.27,9.02-7.22,20.1,2.89,14.92,16.12,25.03,37.06,25.03,25.51,0,39.23-14.56,39.23-31.17,0-32.61-52.95-39.59-52.95-59.44Z"/>
    <path class="cls-1" d="M390.72,325.99c-5.41,4.69-13.6,8.06-20.82,8.06h-16.49v-45.73h4.57c7.1,0,15.4,3.49,20.46,8.54l3.49,3.49h1.44v-28.4h-1.44l-3.49,3.37c-5.05,5.17-13.36,8.54-20.46,8.54h-4.57v-45.6h13.48c7.22,0,15.4,3.13,20.82,8.06l7.7,6.86h1.44l-3.01-19.37h-76.29v1.44l1.8,2.41c4.33,5.66,7.22,14.32,7.22,21.54v53.91c0,7.1-2.89,15.64-7.22,21.54l-1.8,2.41v1.44h79.3l3.01-19.49h-1.56l-7.58,6.98Z"/>
    <path class="cls-1" d="M464.73,286.4c3.85,0,8.06-.96,11.31-2.41,8.54-3.73,15.64-12.03,13.12-25.39-2.89-15.16-16.24-26.35-38.38-26.35-30.2,0-51.14,20.94-51.14,53.91s20.94,53.79,48.01,53.79c19.73,0,38.75-11.19,41.15-36.58h-3.01c-2.77,15.76-13.48,22.14-28.28,22.14-20.82,0-30.93-18.41-30.93-43.44,0-26.59,11.67-45.24,22.86-45.24,8.06,0,15.88,9.39,7.22,28.04-7.7,16.49-.6,21.54,8.06,21.54Z"/>
    <path class="cls-1" d="M508.41,311.79c-8.06,0-13.48,5.78-13.48,14.08s5.41,14.08,13.48,14.08,13.6-5.66,13.6-14.08-5.54-14.08-13.6-14.08Z"/>
    <path class="cls-1" d="M361.32,187.36c-3.13-2.37-6.51-4.88-10.12-7.53-3.62-2.64-6.83-4.94-9.64-6.88-1.08-.75-1.84-1.13-2.27-1.13-.32,0-.76,.27-1.3,.81-2.7,3.13-5.67,6.7-8.91,10.69-3.24,4-6.42,7.88-9.55,11.66-3.13-2.38-6.5-4.94-10.12-7.69-3.62-2.75-6.83-5.1-9.64-7.04-1.08-.75-1.83-1.13-2.27-1.13-.32,0-.75,.27-1.3,.81-2.81,3.35-6.02,7.18-9.64,11.5-3.62,4.32-7.04,8.53-10.28,12.63-.22,.21-.43,.46-.65,.73-.22,.27-.32,.51-.32,.73,0,.43,.54,1.08,1.62,1.94,3.13,2.81,6.51,5.64,10.12,8.5,3.62,2.86,6.94,5.32,9.96,7.37,.87,.54,1.51,.81,1.94,.81,.22,0,.51-.19,.89-.57,.38-.38,.68-.73,.89-1.05l18.3-22.02c3.13,2.81,6.5,5.59,10.12,8.34,3.62,2.75,6.94,5.15,9.96,7.21,.86,.54,1.51,.81,1.94,.81,.22,0,.51-.19,.89-.57,.38-.38,.67-.73,.89-1.05l19.6-23.64c.65-.87,.97-1.46,.97-1.78,0-.43-.22-.81-.65-1.13-.43-.32-.92-.75-1.46-1.3Z"/>
    <path class="cls-1" d="M167.07,91.7c4.11,3.68,8.53,7.39,13.27,11.14,4.74,3.75,9.1,6.97,13.06,9.66,1.13,.71,1.98,1.06,2.55,1.06,.29,0,.67-.25,1.17-.74s.89-.96,1.17-1.38l23.99-28.87c4.1,3.68,8.52,7.32,13.27,10.93,4.74,3.61,9.09,6.76,13.06,9.45,1.13,.71,1.98,1.06,2.55,1.06,.28,0,.67-.25,1.17-.74,.49-.5,.88-.96,1.17-1.38l25.69-30.99c.85-1.13,1.27-1.91,1.27-2.34,0-.56-.29-1.06-.85-1.49-.57-.42-1.2-.99-1.91-1.7-4.11-3.11-8.53-6.4-13.27-9.87-4.74-3.47-8.95-6.47-12.63-9.02-1.42-.99-2.41-1.49-2.97-1.49-.42,0-.99,.35-1.7,1.06-3.54,4.11-7.43,8.78-11.68,14.01-4.25,5.24-8.42,10.33-12.52,15.28-4.1-3.11-8.52-6.47-13.27-10.08-4.74-3.61-8.95-6.69-12.63-9.23-1.41-.99-2.4-1.49-2.97-1.49-.42,0-.99,.35-1.7,1.06-3.68,4.39-7.89,9.41-12.63,15.07-4.74,5.66-9.23,11.18-13.48,16.56-.28,.29-.56,.6-.85,.96-.28,.35-.42,.67-.42,.96,0,.57,.71,1.42,2.12,2.55Z"/>
    <path class="cls-1" d="M193.39,36.72c4.11,3.68,8.42,7.29,12.95,10.83,4.53,3.54,8.78,6.65,12.74,9.34,1.13,.71,1.98,1.06,2.55,1.06,.28,0,.67-.25,1.17-.74s.88-.96,1.17-1.38l24.62-30.57c.85-1.13,1.27-1.91,1.27-2.33,0-.56-.29-1.06-.85-1.49-.57-.42-1.2-.99-1.91-1.7-4.11-3.11-8.35-6.3-12.74-9.55-4.39-3.25-8.42-6.16-12.1-8.7-1.41-.99-2.4-1.49-2.97-1.49-.42,0-.99,.35-1.7,1.06-3.68,4.39-7.71,9.34-12.1,14.86-4.38,5.52-8.7,10.97-12.95,16.35-.28,.29-.56,.6-.85,.96-.28,.35-.42,.67-.42,.96,0,.57,.71,1.42,2.12,2.55Z"/>
    <path class="cls-1" d="M398.16,187.24v-.51c-3,.47-5.34,.74-7.68,.74s-4.68-.27-7.68-.74v.51l1.33,1.01c1.83,1.4,3.71,3.78,4.64,5.93l7.53,16.81h3.86l7.21-15.29,6.86,15.29h3.86l8-16.89c.98-2.07,2.93-4.41,4.76-5.81l1.4-1.05v-.51c-1.4,.23-2.53,.39-3.67,.39s-2.26-.16-3.74-.39v.51l.16,.31c.66,1.87,.62,4.25-.27,6.05l-4.49,9.48-4.13-9.24c-.86-1.95-.86-4.52-.08-6.47l.08-.12v-.51c-3,.47-5.34,.74-7.68,.74s-4.68-.27-7.68-.74v.51l1.33,1.01c1.79,1.4,3.59,3.63,4.56,5.73l-4.33,9.09-4.13-9.24c-.86-1.95-.86-4.52-.08-6.47l.08-.12Z"/>
    <path class="cls-1" d="M444.8,181.85c0-3.16-2.11-5.3-5.15-5.3s-5.03,2.15-5.03,5.3,2.03,5.27,5.03,5.27,5.15-2.11,5.15-5.27Z"/>
    <path class="cls-1" d="M433.07,209.74l-.58,.78v.47h14.55v-.47l-.58-.78c-1.4-1.91-2.34-4.68-2.34-6.98v-16.03c-4.52,2.11-7.06,2.77-11.62,2.92v.47l.58,.78c1.4,1.83,2.34,4.68,2.34,6.98v4.88c0,2.3-.94,5.07-2.34,6.98Z"/>
    <path class="cls-1" d="M463.88,188.21v-1.48h-3.9v-6.36h-1.44c-1.13,3.28-3.2,6.36-7.25,6.36h-3.9v1.48h3.9v14.55c0,2.3-.94,5.07-2.34,6.98l-.58,.78v.47h14.55v-.47l-.58-.78c-1.4-1.91-2.34-4.68-2.34-6.98v-14.55h3.9Z"/>
    <path class="cls-1" d="M482.28,209.74l-.58,.78v.47h14.55v-.47l-.58-.78c-1.4-1.91-2.34-4.68-2.34-6.98v-7.29c0-6.24-3.35-9.2-8.35-9.2s-7.72,2.65-9.13,5.97v-15.17c-4.52,2.07-7.06,2.77-11.62,2.89v.51l.58,.78c1.4,1.83,2.34,4.64,2.34,6.98v14.55c0,2.3-.94,5.07-2.34,6.98l-.58,.78v.47h14.55v-.47l-.58-.78c-1.4-1.91-2.34-4.68-2.34-6.98v-6.12c.2-3.04,1.79-7.22,5.15-7.29,2.73,0,3.59,2.85,3.59,6.63v6.79c0,2.3-.9,5.07-2.3,6.98Z"/>
  </g>
</svg>
