<svg width="36" height="36" viewBox="0 0 36 36" fill="none" xmlns="http://www.w3.org/2000/svg">
<g clip-path="url(#clip0_1_2)">
<rect width="36" height="36" fill="white"/>
<circle cx="18" cy="18" r="18" fill="#F85A40"/>
<path d="M16.4296 24.3838C16.1805 24.5909 15.8043 24.7397 15.4724 24.7397H14.7146V22.7222H14.9248C15.2513 22.7222 15.6329 22.8762 15.8653 23.0993L16.0258 23.2533H16.0922V22.0001H16.0258L15.8653 22.1489C15.6329 22.3772 15.2513 22.526 14.9248 22.526H14.7146V20.5137H15.3341C15.6659 20.5137 16.0421 20.6517 16.2912 20.8695L16.6452 21.172H16.7117L16.5733 20.3171H13.4913C13.5723 20.1903 13.6601 20.0582 13.7556 19.9195C13.8758 19.7449 14.0127 19.5839 14.1656 19.4372C14.3184 19.2904 14.4858 19.1688 14.6681 19.0719C14.85 18.975 15.0519 18.9266 15.2731 18.9266L16.1612 19.0109C16.2328 19.0109 16.3043 19.0047 16.3758 18.9921C16.4473 18.9796 16.5189 18.958 16.5904 18.9266C16.9873 18.7391 17.3842 18.5506 17.781 18.3599C18.1779 18.1697 18.5715 17.9867 18.9619 17.8121C19.0069 17.7915 19.0527 17.7717 19.0988 17.7525C19.1786 17.7271 19.2633 17.7002 19.3526 17.6716C19.5283 17.6155 19.6943 17.5626 19.8504 17.5124C20.0065 17.4625 20.1042 17.4312 20.1431 17.4186C20.5919 17.3061 21.0116 17.1315 21.402 16.8941C21.7883 16.6592 22.0948 16.3351 22.3221 15.9228L22.329 15.9201C22.4136 16.0452 22.5243 16.1605 22.6609 16.2665C22.7974 16.3728 22.9488 16.4665 23.1147 16.5474C23.2807 16.6286 23.4564 16.6909 23.6416 16.7349C23.8272 16.7788 24.0142 16.8004 24.2026 16.8004C24.7622 16.8004 25.2727 16.6801 25.7349 16.4397C26.1968 16.1992 26.6213 15.8887 27.0084 15.5078C27.3954 15.1269 27.7516 14.6992 28.077 14.2246C28.4023 13.7503 28.7081 13.2756 28.9942 12.8009C29.0723 12.6762 29.1485 12.5514 29.2237 12.4263C29.2985 12.3015 29.3715 12.1733 29.4434 12.0422C29.4499 12.0297 29.4564 12.0063 29.463 11.9718C29.4695 11.9377 29.4728 11.9049 29.4728 11.8736C29.4728 11.83 29.4644 11.791 29.4484 11.7565C29.4321 11.7223 29.4078 11.7049 29.3751 11.7049C29.3101 11.7049 29.2531 11.7282 29.2044 11.7753C29.1558 11.8223 29.1147 11.8704 29.0824 11.9206C29.0044 12.0394 28.8969 12.1876 28.7603 12.3657C28.6238 12.5437 28.4724 12.7169 28.3065 12.8856C28.1405 13.0543 27.9648 13.1993 27.7796 13.3213C27.594 13.4429 27.4136 13.5039 27.2378 13.5039C27.0817 13.5039 26.9143 13.4729 26.7353 13.4101C26.5563 13.3477 26.3838 13.2648 26.2179 13.162C26.0519 13.0588 25.907 12.9389 25.7836 12.8013C25.6598 12.664 25.5788 12.5204 25.5396 12.3705C25.585 12.2768 25.6452 12.174 25.72 12.0614C25.7948 11.9488 25.8809 11.8446 25.9786 11.7478C26.0762 11.6509 26.1801 11.5683 26.2908 11.4996C26.4016 11.431 26.5152 11.3965 26.6325 11.3965L27.7647 11.6679C27.9793 11.6679 28.1438 11.6118 28.2574 11.4993C28.3711 11.3867 28.4281 11.2278 28.4281 11.0215C28.4281 10.8904 28.3954 10.7733 28.3304 10.6702C28.2654 10.567 28.1823 10.4799 28.0817 10.4078C27.9808 10.336 27.8686 10.2812 27.7451 10.244C27.6213 10.2063 27.4978 10.1878 27.3744 10.1878C27.2117 10.1878 27.057 10.2143 26.9107 10.2673C26.7643 10.3203 26.6242 10.3889 26.4909 10.4733C26.3577 10.5576 26.2357 10.6559 26.1249 10.7685C26.0142 10.881 25.9165 10.9964 25.8322 11.1149C25.663 11.3522 25.5102 11.5864 25.3736 11.8175C25.2371 12.0485 25.0937 12.2953 24.9441 12.5573C24.8333 12.7511 24.7164 12.9508 24.5926 13.1568C24.4688 13.3627 24.3617 13.5753 24.2705 13.7938C24.264 13.8126 24.2607 13.8562 24.2607 13.9249C24.2607 14.0747 24.2916 14.2152 24.3533 14.3462C24.415 14.4772 24.4982 14.5898 24.602 14.6836C24.3678 14.6836 24.1514 14.6571 23.9532 14.6041C23.7545 14.5511 23.5806 14.4588 23.431 14.3277C23.2814 14.1967 23.1627 14.0204 23.0748 13.7984C22.9869 13.5767 22.9365 13.3003 22.9234 12.9693L23.0211 11.7798C23.0211 11.6672 23.0113 11.6111 22.9916 11.6111C22.9201 11.6111 22.842 11.6672 22.7574 11.7798C22.6728 11.8924 22.585 12.0405 22.4938 12.2249C22.4027 12.4092 22.3101 12.6169 22.2157 12.8476C22.1213 13.0787 22.032 13.3129 21.9473 13.5502C21.9343 13.5816 21.9198 13.6269 21.9034 13.6861C21.8871 13.7457 21.8725 13.836 21.8595 13.9576C21.8464 14.0792 21.8351 14.2371 21.8253 14.4305C21.8155 14.6243 21.8108 14.8707 21.8108 15.1704C21.8108 15.2913 21.8032 15.4109 21.7894 15.5287C21.6895 15.6228 21.5832 15.7099 21.4691 15.7887C21.3065 15.9012 21.1358 15.9915 20.9568 16.0602C20.7778 16.1288 20.5973 16.1633 20.415 16.1633C20.2328 16.1633 20.0447 16.1204 19.8631 16.0351C19.8664 16.0201 19.8696 16.0058 19.8733 15.9898C19.8896 15.918 19.9041 15.843 19.9172 15.765C19.9303 15.6869 19.9368 15.6196 19.9368 15.5635C19.9368 15.4576 19.9107 15.4043 19.8588 15.4043C19.7938 15.4043 19.74 15.4388 19.6979 15.5074C19.6554 15.5761 19.6166 15.6527 19.5806 15.7367C19.5447 15.8211 19.5105 15.904 19.4782 15.9849C19.4455 16.0661 19.4099 16.1194 19.3707 16.1441C19.2211 16.2693 19.0439 16.3627 18.8388 16.425C18.634 16.4874 18.4368 16.5188 18.2484 16.5188H18.2386C18.2059 16.5188 18.1558 16.5156 18.0871 16.5094C18.0189 16.5031 17.9847 16.4846 17.9847 16.4533C17.9847 16.4156 17.996 16.3501 18.0189 16.2567C18.0418 16.163 18.053 16.0727 18.053 15.9852C18.053 15.8667 18.0171 15.8071 17.9455 15.8071C17.8871 15.8071 17.8282 15.8416 17.7698 15.9103C17.7113 15.9789 17.6543 16.0588 17.5991 16.149C17.5439 16.2396 17.4949 16.3302 17.4528 16.4205C17.4103 16.5111 17.3794 16.5784 17.3602 16.6219C17.2821 16.7655 17.183 16.9 17.0625 17.0248C16.9419 17.1499 16.7908 17.2123 16.6086 17.2123L15.8765 17.1468C15.5577 17.1468 15.2567 17.2249 14.9739 17.381C14.691 17.5371 14.4256 17.7431 14.1786 17.9992C13.9314 18.2554 13.707 18.5439 13.5054 18.8656C13.3678 19.0852 13.2407 19.3086 13.1227 19.5354C13.118 19.4675 13.1126 19.3978 13.1053 19.3246C13.0857 19.128 13.0432 18.9423 12.9786 18.7673C12.9136 18.5927 12.8141 18.4443 12.6808 18.3223C12.5476 18.2007 12.37 18.1397 12.1489 18.1397C11.9993 18.1397 11.8497 18.1679 11.7001 18.224C11.5505 18.2801 11.4172 18.3585 11.2999 18.4582L10.48 19.1514C10.2912 19.3138 10.0654 19.4264 9.80174 19.4887C9.53813 19.5511 9.28286 19.5825 9.03558 19.5825C8.80138 19.5825 8.60276 19.5543 8.44045 19.4982C8.27778 19.442 8.13943 19.3591 8.02578 19.25C7.91176 19.1409 7.82099 19.005 7.75236 18.8426C7.7037 18.7269 7.66086 18.5976 7.62382 18.4565C7.58606 18.254 7.55846 18.0459 7.54248 17.8309C7.52288 17.5685 7.51307 17.3315 7.51307 17.1189C7.57153 16.126 7.622 15.283 7.66449 14.5898C7.70661 13.8966 7.74074 13.3192 7.76688 12.857C7.79267 12.3949 7.81227 12.0314 7.82534 11.7659C7.83842 11.5007 7.84495 11.2992 7.84495 11.1616C7.84495 11.0239 7.83842 10.9305 7.82534 10.8991C7.81227 10.8681 7.79267 10.8524 7.76688 10.8524C7.7146 10.8524 7.67574 10.8775 7.6496 10.9274C7.62346 10.9776 7.59731 11.0337 7.57153 11.096L6.92738 12.6511C6.90123 12.7135 6.88344 12.787 6.87364 12.8713C6.86383 12.9557 6.85548 13.0386 6.84931 13.1195C6.79702 13.9189 6.75309 14.6104 6.7175 15.1941C6.68155 15.7782 6.65251 16.2794 6.62963 16.6976C6.60675 17.1161 6.58715 17.4594 6.57117 17.7281C6.55483 17.9968 6.54357 18.2104 6.53704 18.3697C6.5305 18.529 6.52723 18.6478 6.52723 18.7255V18.8893C6.52723 19.0144 6.53377 19.1409 6.54684 19.2688C6.55301 19.3316 6.56028 19.3953 6.56826 19.4605C6.57734 19.724 6.62237 19.9801 6.70298 20.229C6.79412 20.5099 6.92919 20.7583 7.10784 20.9737C7.28686 21.1891 7.50654 21.3609 7.76652 21.4888C7.78068 21.4958 7.79593 21.5021 7.81046 21.5087L6.77996 23.9545C6.65832 24.2253 6.42048 24.5334 6.18809 24.7243L6 24.8731V24.9369H7.04684V24.8731L7.03595 24.8519C6.8976 24.5863 6.8809 24.2253 6.9971 23.9545L7.04139 23.8482H8.69535L8.75054 23.9862C8.85585 24.2357 8.84459 24.5755 8.71169 24.809L8.6841 24.8728V24.9366H10.8359V24.8728L10.6147 24.6975C10.4045 24.5274 10.1834 24.2357 10.0781 23.9862L9.11329 21.6334C9.21714 21.6104 9.31699 21.5798 9.41213 21.54C9.63653 21.4463 9.84168 21.3247 10.0269 21.1748C10.2124 21.025 10.3845 20.8531 10.5443 20.6597C10.7037 20.4663 10.8548 20.2694 10.9982 20.0697C11.0763 19.9638 11.1656 19.8575 11.2665 19.7512C11.3675 19.6452 11.4862 19.5919 11.6227 19.5919C11.7593 19.5919 11.8911 19.6295 11.9985 19.7045C12.106 19.7794 12.1921 19.8731 12.2571 19.9854C12.3163 20.0882 12.3617 20.199 12.394 20.3175H10.8693V20.3813L10.9524 20.4876C11.1514 20.7371 11.2843 21.1194 11.2843 21.4379V23.8165C11.2843 24.1298 11.1514 24.5069 10.9524 24.7668L10.8693 24.8731V24.9369H12.9328V24.8731L12.85 24.7668C12.6511 24.5069 12.5182 24.1298 12.5182 23.8165V22.3102L13.2894 20.7054C13.4078 20.9312 13.4808 21.202 13.4808 21.4376V23.8161C13.4808 24.1294 13.3479 24.5065 13.1489 24.7665L13.0657 24.8728V24.9366H16.7113L16.8497 24.0765H16.7778L16.4292 24.3845L16.4296 24.3838ZM7.12455 23.6509L7.87691 21.8617L8.61256 23.6509H7.12455Z" fill="white"/>
<path d="M18.1057 21.0016C18.1057 20.6935 18.4154 20.4496 18.8911 20.4496C19.3282 20.4496 19.5991 20.6674 19.2894 21.2936C19.0018 21.8777 19.2397 22.0475 19.5218 22.0475C19.6434 22.0475 19.7651 22.021 19.8649 21.9785C20.2302 21.8244 20.4183 21.4529 20.346 21.0866C20.2633 20.6141 19.7763 20.2478 18.8635 20.2478C17.6739 20.2478 17.154 20.8692 17.154 21.485C17.154 22.7859 19.4441 23.0884 19.4441 24.1131C19.4441 24.4793 19.1452 24.8034 18.6972 24.8034C18.2215 24.8034 17.8562 24.4424 18.1939 23.7363C18.4982 23.1205 18.1939 22.871 17.8344 22.871C17.6739 22.871 17.4971 22.9187 17.3642 23.009C17.1707 23.1365 16.9383 23.4073 17.0323 23.8956C17.1652 24.5539 17.7738 25 18.736 25C19.9089 25 20.5396 24.3577 20.5396 23.6248C20.5396 22.1858 18.1053 21.8781 18.1053 21.002L18.1057 21.0016Z" fill="white"/>
<path d="M23.9644 24.3838C23.7157 24.5909 23.3391 24.7397 23.0073 24.7397H22.2495V22.7222H22.4597C22.7861 22.7222 23.1678 22.8762 23.4001 23.0993L23.5606 23.2533H23.6271V22.0001H23.5606L23.4001 22.1489C23.1678 22.3772 22.7861 22.526 22.4597 22.526H22.2495V20.5137H22.8689C23.2008 20.5137 23.577 20.6517 23.8261 20.8695L24.1801 21.172H24.2465L24.1082 20.3171H20.6009V20.3809L20.6837 20.4872C20.8827 20.7367 21.0156 21.119 21.0156 21.4376V23.8161C21.0156 24.1294 20.8831 24.5065 20.6837 24.7665L20.6009 24.8728V24.9366H24.2465L24.3849 24.0765H24.313L23.9644 24.3845V24.3838Z" fill="white"/>
<path d="M27.3667 22.6368C27.5439 22.6368 27.7375 22.5943 27.8867 22.5305C28.2796 22.366 28.606 21.9994 28.4898 21.41C28.3573 20.7409 27.7429 20.2471 26.7251 20.2471C25.3366 20.2471 24.374 21.171 24.374 22.6256C24.374 24.0803 25.3366 24.999 26.5813 24.999C27.4887 24.999 28.3627 24.5051 28.4731 23.3847H28.3348C28.2077 24.0803 27.7153 24.3615 27.0349 24.3615C26.0777 24.3615 25.6129 23.5492 25.6129 22.4448C25.6129 21.2713 26.1496 20.4485 26.6641 20.4485C27.0349 20.4485 27.3943 20.8625 26.996 21.6857C26.642 22.413 26.9684 22.6361 27.3667 22.6361V22.6368Z" fill="white"/>
<path d="M29.3747 23.7572C29.004 23.7572 28.7553 24.012 28.7553 24.3786C28.7553 24.7452 29.004 25 29.3747 25C29.7455 25 30 24.7505 30 24.3786C30 24.0068 29.7455 23.7572 29.3747 23.7572Z" fill="white"/>
<path d="M22.6129 18.2669C22.4688 18.162 22.3137 18.0515 22.1478 17.9348C21.9815 17.818 21.8337 17.7169 21.7048 17.6312C21.655 17.5978 21.6202 17.581 21.6006 17.581C21.5857 17.581 21.5657 17.5929 21.541 17.6169C21.4168 17.7553 21.2803 17.9125 21.1314 18.0884C20.9826 18.2648 20.8362 18.4363 20.6921 18.6028C20.5483 18.4979 20.3932 18.385 20.2269 18.2634C20.0606 18.1418 19.9132 18.0383 19.784 17.9525C19.7346 17.9194 19.6997 17.9023 19.6797 17.9023C19.6649 17.9023 19.6449 17.9142 19.6202 17.9382C19.4913 18.086 19.3435 18.255 19.1772 18.4457C19.0109 18.6363 18.8533 18.8221 18.7044 19.0029C18.6946 19.0123 18.6848 19.0231 18.6747 19.035C18.6649 19.0468 18.6598 19.0576 18.6598 19.0671C18.6598 19.0859 18.6848 19.1144 18.7342 19.1528C18.8784 19.2765 19.0334 19.4016 19.1993 19.5278C19.3656 19.6539 19.5182 19.7623 19.6572 19.8529C19.6972 19.8766 19.7269 19.8888 19.7466 19.8888C19.7567 19.8888 19.7702 19.8805 19.7876 19.8637C19.805 19.847 19.8188 19.8317 19.8286 19.8174L20.6699 18.8458C20.8137 18.9695 20.9688 19.0921 21.1351 19.2138C21.3014 19.3354 21.4539 19.4413 21.593 19.5316C21.6325 19.5553 21.6623 19.5675 21.6823 19.5675C21.6921 19.5675 21.7059 19.5591 21.7233 19.5424C21.7407 19.5257 21.7542 19.5103 21.7643 19.4961L22.6652 18.4526C22.695 18.4143 22.7099 18.3885 22.7099 18.3739C22.7099 18.3551 22.6997 18.3383 22.6801 18.3237C22.6601 18.3094 22.638 18.2906 22.6133 18.2665L22.6129 18.2669Z" fill="white"/>
<path d="M13.6823 14.0461C13.8711 14.2085 14.0744 14.3723 14.2923 14.5379C14.5105 14.7034 14.7106 14.8453 14.8925 14.9641C14.9448 14.9951 14.9837 15.0108 15.0098 15.0108C15.0229 15.0108 15.0407 14.9997 15.0635 14.978C15.0864 14.9564 15.1042 14.9359 15.1173 14.9171L16.22 13.6433C16.4085 13.8057 16.6118 13.9663 16.8301 14.1256C17.0479 14.2849 17.248 14.4236 17.4303 14.5424C17.4822 14.5734 17.5214 14.5891 17.5476 14.5891C17.5606 14.5891 17.5784 14.5783 17.6013 14.5564C17.6242 14.5344 17.642 14.5142 17.655 14.4954L18.8359 13.1278C18.8751 13.078 18.8943 13.0435 18.8943 13.0247C18.8943 12.9999 18.8813 12.978 18.8551 12.9592C18.829 12.9403 18.7999 12.9156 18.7672 12.8842C18.5784 12.7469 18.3751 12.6019 18.1572 12.4486C17.939 12.2956 17.7458 12.1628 17.5766 12.0506C17.5116 12.007 17.4659 11.9851 17.4401 11.9851C17.4205 11.9851 17.3943 12.0008 17.362 12.0318C17.1993 12.213 17.0203 12.419 16.8253 12.65C16.63 12.8811 16.4383 13.1059 16.2495 13.3244C16.061 13.1871 15.8577 13.0386 15.6394 12.8793C15.4216 12.7201 15.228 12.5842 15.0588 12.4719C14.9938 12.4284 14.9484 12.4064 14.9223 12.4064C14.9027 12.4064 14.8769 12.4221 14.8442 12.4531C14.675 12.6469 14.4815 12.8685 14.2636 13.1181C14.0458 13.368 13.8391 13.6116 13.6438 13.8485C13.6307 13.8611 13.618 13.875 13.6046 13.8907C13.5915 13.9064 13.585 13.9203 13.585 13.9329C13.585 13.958 13.6176 13.9953 13.6826 14.0454L13.6823 14.0461Z" fill="white"/>
<path d="M14.8925 11.6202C15.0813 11.7826 15.2796 11.9419 15.488 12.098C15.6964 12.2541 15.8914 12.3914 16.0737 12.5103C16.126 12.5416 16.1649 12.557 16.191 12.557C16.2041 12.557 16.2219 12.5462 16.2447 12.5242C16.2676 12.5023 16.2854 12.4821 16.2985 12.4632L17.4306 11.1145C17.4699 11.0647 17.4891 11.0302 17.4891 11.0114C17.4891 10.9866 17.476 10.9647 17.4499 10.9458C17.4237 10.927 17.3947 10.9023 17.362 10.8709C17.1732 10.7336 16.9782 10.5932 16.7763 10.4496C16.5744 10.306 16.3893 10.1781 16.22 10.0655C16.155 10.022 16.1097 10 16.0835 10C16.0639 10 16.0381 10.0157 16.0054 10.0467C15.8362 10.2405 15.6511 10.459 15.4492 10.7022C15.2476 10.9458 15.049 11.1863 14.8537 11.4233C14.8406 11.4358 14.8279 11.4498 14.8145 11.4655C14.8014 11.4811 14.7948 11.4951 14.7948 11.5076C14.7948 11.5327 14.8275 11.57 14.8925 11.6202Z" fill="white"/>
<path d="M24.3065 18.2613V18.239C24.1685 18.2596 24.061 18.2718 23.9532 18.2718C23.8453 18.2718 23.7378 18.2596 23.5999 18.239V18.2613L23.6609 18.3059C23.7451 18.368 23.8312 18.4729 23.8744 18.5676L24.2204 19.3093H24.398L24.7295 18.6346L25.045 19.3093H25.2226L25.59 18.5642C25.6351 18.4729 25.7244 18.3697 25.809 18.3077L25.8736 18.2613V18.239C25.809 18.2495 25.7571 18.2561 25.7052 18.2561C25.6532 18.2561 25.6013 18.2491 25.533 18.239V18.2613L25.5403 18.2752C25.5708 18.3578 25.569 18.4627 25.528 18.5419L25.3217 18.9601L25.1314 18.5523C25.0919 18.4662 25.0919 18.3526 25.1278 18.2665L25.1314 18.2613V18.239C24.9935 18.2596 24.886 18.2718 24.7781 18.2718C24.6703 18.2718 24.5628 18.2596 24.4248 18.239V18.2613L24.4858 18.3059C24.5683 18.368 24.6507 18.4659 24.6957 18.5589L24.4967 18.9601L24.3068 18.5523C24.2672 18.4662 24.2672 18.3526 24.3032 18.2665L24.3068 18.2613H24.3065Z" fill="white"/>
<path d="M26.4506 18.024C26.4506 17.8846 26.3537 17.7898 26.2139 17.7898C26.0741 17.7898 25.9826 17.8846 25.9826 18.024C25.9826 18.1634 26.0759 18.2564 26.2139 18.2564C26.3519 18.2564 26.4506 18.1634 26.4506 18.024Z" fill="white"/>
<path d="M25.911 19.2542L25.8842 19.2887V19.3093H26.553V19.2887L26.5261 19.2542C26.4615 19.1699 26.4187 19.0475 26.4187 18.9461V18.239C26.2106 18.3321 26.094 18.3613 25.8845 18.368V18.3885L25.9114 18.423C25.976 18.5039 26.0189 18.6297 26.0189 18.7311V18.9461C26.0189 19.0475 25.976 19.1699 25.9114 19.2542H25.911Z" fill="white"/>
<path d="M27.3275 18.3045V18.239H27.1481V17.9585H27.0817C27.0298 18.1031 26.9346 18.239 26.748 18.239H26.5686V18.3045H26.748V18.9465C26.748 19.0479 26.7052 19.1702 26.6405 19.2545L26.6136 19.289V19.3096H27.2825V19.289L27.2556 19.2545C27.191 19.1702 27.1481 19.0479 27.1481 18.9465V18.3045H27.3275Z" fill="white"/>
<path d="M28.1739 19.2542L28.1471 19.2887V19.3093H28.8159V19.2887L28.789 19.2542C28.7244 19.1699 28.6816 19.0475 28.6816 18.9461V18.6245C28.6816 18.3491 28.5272 18.2184 28.2977 18.2184C28.0683 18.2184 27.9426 18.3355 27.878 18.4819V17.8124C27.6699 17.9037 27.5534 17.9348 27.3439 17.9396V17.9619L27.3707 17.9964C27.4354 18.0773 27.4782 18.2014 27.4782 18.3045V18.9465C27.4782 19.0479 27.4354 19.1702 27.3707 19.2545L27.3439 19.289V19.3096H28.0127V19.289L27.9858 19.2545C27.9212 19.1702 27.8784 19.0479 27.8784 18.9465V18.6764C27.8874 18.5422 27.9608 18.3578 28.1151 18.3547C28.2407 18.3547 28.28 18.4802 28.28 18.6471V18.9465C28.28 19.0479 28.2386 19.1702 28.1743 19.2545L28.1739 19.2542Z" fill="white"/>
</g>
<defs>
<clipPath id="clip0_1_2">
<rect width="36" height="36" fill="white"/>
</clipPath>
</defs>
</svg>
